<?xml version="1.0" encoding="utf-8"?>
<!-- Generator: Adobe Illustrator 23.0.3, SVG Export Plug-In . SVG Version: 6.00 Build 0)  -->
<svg version="1.1" xmlns="http://www.w3.org/2000/svg" xmlns:xlink="http://www.w3.org/1999/xlink" x="0px" y="0px"
	 viewBox="0 0 300 300" style="enable-background:new 0 0 300 300;" xml:space="preserve">
<style type="text/css">
	.st0{fill:#FFFFFF;}
	.st1{fill:#BE7D47;}
	.st2{fill:#6E341E;}
	.st3{fill:none;stroke:#00060F;stroke-width:5;stroke-linecap:round;stroke-linejoin:round;stroke-miterlimit:10;}
	.st4{fill:none;stroke:#00060F;stroke-width:8;stroke-linecap:round;stroke-linejoin:round;stroke-miterlimit:10;}
	.st5{fill:none;stroke:#00060F;stroke-width:13;stroke-linecap:round;stroke-linejoin:round;stroke-miterlimit:10;}
	.st6{fill:#00060F;}
</style>
<g id="Слой_9">
	<g>
		<g>
			<path class="st0" d="M149.1,46.6c0.3,0,0.6,0,0.9,0c47.7,0.3,72.9,24.3,85.7,44.4c10.2,16.2,14.2,32.1,15.6,39.6
				c3.6-2.5,9.5-5.9,15.6-5.9c1.2,0,2.5,0.1,3.7,0.5c5.6,1.4,9.7,6,12.4,13.6c1.8,4.3,1.8,8.7-0.1,13.1c-5.6,13-26.7,21.9-32.2,24.1
				c-1.7,6.6-11,34.4-46.2,45.6c2.5,8.3,6.1,23.2,2.2,27.7c-3.2,3.6-11.3,4.2-14.7,4.3c-0.3,0-0.8,0-1.3,0c0,0,0,0,0,0
				c-3.9,0-12.1-0.5-15.9-4.2c-4.4-4.4-7.7-15.9-9-20.5l-38-1.5c-1.7,5.6-6.8,20.4-15.1,23.6c-2.6,1-5.8,1.5-9,1.5
				c-5.8,0-11.9-1.4-15.5-3.6c-2.2-1.3-3.4-2.9-3.6-4.7c-0.4-4.1,3.2-17.8,4.9-23.6c-7.1-3.8-31.9-18.6-43.2-46.4
				c-5.5-2.7-28.6-14.3-31.1-24.4c-1.4-5.8,0.8-13.4,5.8-19.3c3.7-4.4,8-6.8,11.8-6.8c0.2,0,0.4,0,0.6,0c5.2,0.3,10.1,2.5,13.1,4.3
				c1.5-7,5.9-22.9,16.8-38.9C76.4,69.5,102,46.6,149.1,46.6 M48.1,134.2c-0.5,0-1-0.2-1.5-0.5c-0.2-0.1-6.9-4.9-13.8-5.4
				c-0.1,0-0.2,0-0.3,0c-2.3,0-5.4,1.9-8,5c-3.9,4.6-5.8,10.6-4.7,14.9c1.6,6.4,18.8,16.5,29.3,21.4c0.6,0.3,1,0.8,1.3,1.3
				c12.1,30.8,42.7,45.5,43,45.6c1.1,0.5,1.7,1.8,1.3,3c-2.4,8.2-5.6,21-5.3,23.7c0.7,1.6,7.6,3.9,14.3,3.9c2.5,0,5-0.3,7.1-1.1
				c5.5-2.1,10.6-14.7,12.6-22.2c0.3-1.1,1.3-1.9,2.4-1.9c0,0,0.1,0,0.1,0l41.8,1.7c1.1,0,2.1,0.8,2.3,1.9c1,4.4,4.5,16.4,8.1,20
				c1.6,1.6,6.6,2.7,12.2,2.7c0.4,0,0.9,0,1.3,0c5.8-0.2,10-1.5,11.1-2.6c1.6-1.8-0.3-13.6-3.9-25.2c-0.2-0.6-0.1-1.3,0.2-1.9
				c0.3-0.6,0.9-1,1.5-1.2c38.5-11.1,45.3-43.5,45.4-43.9c0.2-0.9,0.8-1.6,1.6-1.9c0.3-0.1,25.1-9.1,30.6-21.8
				c1.4-3.1,1.4-6.1,0-9.2c0-0.1,0-0.1-0.1-0.2c-2-6-5-9.5-8.9-10.5c-0.8-0.2-1.7-0.3-2.6-0.3c-7.5,0-15.5,7.2-15.6,7.3
				c-0.5,0.4-1.1,0.7-1.7,0.7c-0.3,0-0.6-0.1-0.9-0.2c-0.9-0.3-1.5-1.1-1.6-2.1c0-0.2-2.4-21.2-15.6-42
				c-17.6-27.6-44.9-41.7-81.4-41.9c-0.3,0-0.5,0-0.8,0C113,51.6,85.5,65,67.3,91.6c-13.7,20-16.7,40.3-16.7,40.5
				c-0.1,0.9-0.7,1.6-1.5,2C48.8,134.2,48.4,134.2,48.1,134.2 M149.1,36.6c-51.5,0-79.7,25.3-94.2,46.6
				c-7.7,11.3-12.4,22.4-15.3,31.2c-1.9-0.4-3.8-0.8-5.8-0.9c-0.4,0-0.8,0-1.2,0c-7,0-13.9,3.7-19.5,10.4c-7,8.4-10,19.2-7.8,28.1
				c1.7,7,7.6,13.6,18.6,20.9c5.3,3.5,10.8,6.5,14.5,8.4C48.8,203.7,66.9,218,77.8,225c-3.8,14.7-3.4,18.3-3.2,20
				c0.3,2.8,1.8,8.2,8.4,12.2c5.1,3.1,13.1,5.1,20.7,5.1c4.7,0,9-0.7,12.7-2.1c8.9-3.5,14.7-13.1,18.5-22.6l23.4,0.9
				c2.8,8.4,5.9,14.4,9.5,17.9c5.9,5.9,15.7,7.1,22.9,7.1c0.7,0,1.2,0,1.6,0c10.2-0.3,17.6-2.9,21.8-7.6c3.3-3.7,6.3-10.3,2.3-28.1
				c12.9-5.6,23.5-13.9,31.7-24.7c5.6-7.5,8.9-14.7,10.7-19.6c10.4-4.6,27.3-13.8,33.3-27.6c2.9-6.8,3-13.9,0.2-20.6
				c-4.7-13.5-13.1-18.2-19.2-19.7c-2-0.5-4.1-0.8-6.2-0.8c-3.1,0-6.1,0.5-8.8,1.4c-2.6-8.7-6.9-19.5-13.9-30.5
				c-8.6-13.6-19.7-24.6-32.9-32.8c-17.3-10.6-37.8-16.1-61.2-16.2C149.7,36.6,149.4,36.6,149.1,36.6L149.1,36.6z M60.5,133.5
				c0.1-0.5,3-18.6,15-36.2c16.2-23.7,41-35.7,73.7-35.7l0.7,0c32.8,0.2,57.4,12.7,73,37.3c11.8,18.5,14.1,37.5,14.1,37.7
				c0.5,4.7,3.6,8.6,8,10.3c1.4,0.5,2.9,0.8,4.4,0.8c3.1,0,6.1-1.1,8.4-3.2c2.5-2.2,6.7-4.7,8.9-4.7c0.3,0.3,1.2,1.4,2.1,4
				c0.1,0.3,0.2,0.6,0.4,0.9c0.2,0.5,0.3,0.6,0,1.3c-2.6,6-16.4,13.3-24.8,16.4c-4,1.4-7.1,5-8,9.2c-0.3,1.4-6.6,27.2-38.4,36.3
				c-3.2,0.9-6,3.1-7.6,6.1c-1.6,2.9-1.9,6.5-0.9,9.7c1.9,6,3,11.2,3.6,14.8c-0.5,0-0.9,0.1-1.5,0.1c-0.3,0-0.7,0-1,0
				c-2.5,0-4.5-0.3-5.6-0.6c-1.5-2.7-3.7-9.1-5-14.5c-1.3-5.4-6.1-9.4-11.6-9.6l-41.8-1.7c0,0-0.1,0-0.1,0c-0.1,0-0.3,0-0.4,0
				c-5.7,0-10.7,3.8-12.1,9.3c-1.7,6.6-5.1,13.6-7,15.5c-0.6,0.1-1.5,0.3-3,0.3c-1.1,0-2.2-0.1-3.2-0.2c0.9-4,2.2-9.3,3.8-14.6
				c1.7-5.9-1.1-12.1-6.6-14.7c-0.6-0.3-27.5-13.7-38-40.3c-1.2-3-3.4-5.4-6.3-6.7c-10.8-5.1-21.2-12.1-23.8-15.2
				c0.1-1.2,0.9-3.5,2.7-5.7c0.5-0.6,0.9-1,1.3-1.3c2.8,0.6,5.9,2.4,7.2,3.3c2.1,1.5,4.7,2.4,7.3,2.4c1.7,0,3.3-0.3,4.9-1
				C57,141.6,59.9,137.8,60.5,133.5L60.5,133.5z"/>
		</g>
	</g>
</g>
<g id="Слой_8">
	<path class="st1" d="M48.7,131.7c0,0,11.6-83.2,101.9-82.7c90.2,0.5,99.5,86.1,99.5,86.1s22.5-20.6,31.1,4.5
		C289.7,159.5,249,174,249,174s-6.8,34.2-47.2,45.8c0,0,7.3,23.3,3.4,27.7c-3.9,4.4-23.3,4.9-28.2,0c-4.9-4.9-8.8-21.2-8.8-21.2
		l-41.8-1.7c0,0-5.3,20.4-14.1,23.9c-8.8,3.4-24.3-0.4-24.8-4.8c-0.5-4.4,5.3-24.6,5.3-24.6s-31.6-14.9-44.3-47
		c0,0-28.2-13.2-30.6-23.1s7.8-23.5,15.6-23S48.7,131.7,48.7,131.7z"/>
	<path class="st2" d="M47.9,131.6c-1.3-0.9-7.9-5.2-14.8-5.7c-7.8-0.5-18,13.1-15.6,23c2.4,9.9,30.6,23.1,30.6,23.1
		c0.4,0.9,0.7,1.8,1.1,2.7C47.2,160.5,47.3,146,47.9,131.6z"/>
	<path class="st2" d="M122.1,223.7c-9.9-1.6-19.9-3.7-30-3.9c-1,3.6-5.6,20-5.1,23.9c0.5,4.4,16,8.2,24.8,4.8
		c8.8-3.4,14.1-23.9,14.1-23.9l5.1,0.2C128.1,224.5,125.1,224.2,122.1,223.7z"/>
	<path class="st2" d="M185.1,223.3c-9.9,1.4-19.3,2.5-29.3,2.5l11.9,0.5c0,0,3.9,16.3,8.8,21.2s24.3,4.4,28.2,0
		c3.4-3.9-1.8-22.4-3.1-26.8C196.2,221.8,190.6,222.5,185.1,223.3z"/>
	<path class="st2" d="M280.6,139.7c-8.2-24.1-29.2-6.2-31-4.6c0,5.9,0.4,11.8,0.5,17.8c0.1,8.1-1.7,16.1-2.3,24.2
		c0.6-1.8,0.8-2.9,0.8-2.9S289.2,159.5,280.6,139.7z"/>
	<path class="st2" d="M87.6,152.9h127.9c0,0,9.2,48.5-64,48.7C89,207.8,87.6,152.9,87.6,152.9z"/>
	<path class="st3" d="M48.1,131.7c0,0,11.6-83.2,101.9-82.7c90.2,0.5,99.5,86.1,99.5,86.1s22.5-20.6,31.1,4.5
		c8.6,19.8-32.1,34.4-32.1,34.4s-6.8,34.2-47.2,45.8c0,0,7.3,23.3,3.4,27.7c-3.9,4.4-23.3,4.9-28.2,0c-4.9-4.9-8.8-21.2-8.8-21.2
		l-41.8-1.7c0,0-5.3,20.4-14.1,23.9c-8.8,3.4-24.3-0.4-24.8-4.8c-0.5-4.4,5.3-24.6,5.3-24.6s-31.6-14.9-44.3-47
		c0,0-28.2-13.2-30.6-23.1s7.8-23.5,15.6-23S48.1,131.7,48.1,131.7z"/>
	<path class="st0" d="M134.2,155.2c0,0,0.1,11.5,3,13.4s27.8,1,27.8,1s3.1,0.1,4-6c0.8-6.1-0.5-10.6-0.5-10.6L134.2,155.2z"/>
	<path class="st3" d="M48.1,131.7c0,0-4.5,25.9,4.1,48.9"/>
	<path class="st3" d="M248.9,131.7c0,0,3.9,22.9-0.4,42.3"/>
	<path class="st3" d="M92.4,219c0,0,11.2,4.5,36.5,5.6"/>
	<path class="st3" d="M161.9,226.1c0,0,28.6-2.1,48.1-9.3"/>
	<path class="st3" d="M87,152.9h127.9c0,0,9.2,48.5-64,48.7C88.5,207.8,87,152.9,87,152.9z"/>
	<line class="st4" x1="174.6" y1="103.5" x2="196.9" y2="103.5"/>
	<line class="st5" x1="110.6" y1="78.7" x2="134.2" y2="103.5"/>
	<circle class="st6" cx="119.4" cy="125.5" r="12.6"/>
	<circle class="st6" cx="184.6" cy="128.2" r="12.6"/>
</g>
</svg>
